<svg width="668" height="529" viewBox="0 0 668 529" fill="none" xmlns="http://www.w3.org/2000/svg">
<path d="M404 510.441L390.776 514.63L378.153 518.221L355.913 523.008L344.317 524.812C339.232 525.603 334.093 526 328.947 526H319.246H293.399L268.754 523.008L242.192 516.733C236.269 515.334 230.487 513.397 224.917 510.947L207.443 503.261L184 488.899L163.563 473.939L146.841 459.044C142.768 455.416 138.999 451.461 135.571 447.218L123.038 431.707C120.004 427.951 117.246 423.981 114.785 419.828L104.656 402.729L92.0328 377.596L83.0164 351.266L77.0055 327.928L74 301" stroke="black" stroke-width="5" stroke-linecap="round"/>
<path d="M67.3842 288.888L66.245 284.803C65.5327 282.249 65.0697 279.585 64.8661 276.87L64.6005 273.329C63.9255 264.331 64.7884 255.192 67.1307 246.532L68.1233 242.862C69.6084 237.371 71.5456 232.078 73.9021 227.072L76.914 220.674C77.4744 219.483 78.1227 218.361 78.8499 217.323L83.7064 210.387L87.1586 220.055C90.1594 230.319 91.3343 241.364 90.6006 252.416L90.1012 259.938C89.7491 265.242 88.7897 270.476 87.2533 275.476C85.1515 282.316 82.0064 288.599 78.0028 293.954L73.8991 299.443L68.8308 292.041C68.1981 291.117 67.7078 290.048 67.3842 288.888Z" stroke="black" stroke-width="6"/>
<path d="M65.7295 356.231L65.3526 358.976L65.7295 356.231L61.126 354.688C58.1844 353.701 55.2944 352.413 52.5133 350.849L49.484 349.145C40.5096 344.097 32.3536 337.469 25.5713 329.715L23.6524 327.521C19.457 322.724 15.7437 317.608 12.5823 312.27L8.97078 306.171C8.25881 304.968 7.66658 303.726 7.20376 302.464L4.02278 293.792L16.0136 296.939C27.6163 300.676 38.822 306.578 48.9017 314.264L55.3789 319.203C59.7943 322.57 63.8005 326.444 67.2651 330.699C72.2347 336.801 75.993 343.565 78.2877 350.537L80.4515 357.111L69.5492 356.911C68.2949 356.888 67.0034 356.658 65.7295 356.231Z" stroke="black" stroke-width="6"/>
<path d="M114.589 439.12L111.257 439.535C109.191 439.792 107.069 439.859 104.929 439.733L102.821 439.61C95.9213 439.206 89.0349 437.605 82.6281 434.915L81.3048 434.359C77.4917 432.758 73.8709 430.82 70.5161 428.585L66.751 426.077C66.0696 425.623 65.4439 425.115 64.8852 424.562L61.7903 421.497L68.6844 420.19C76.8176 419.087 85.3401 419.374 93.7336 421.035L99.0282 422.083C102.399 422.749 105.686 423.816 108.777 425.248C113.393 427.384 117.476 430.287 120.721 433.739L122.765 435.913L116.75 438.539C116.086 438.829 115.356 439.025 114.589 439.12Z" stroke="black" stroke-width="6"/>
<path d="M166.619 490.766L164.601 488.858L161.636 490.991C159.785 492.322 157.778 493.496 155.654 494.491L153.437 495.529C146.56 498.749 139.078 500.803 131.499 501.552L129.729 501.726C125.072 502.186 120.429 502.214 115.889 501.81L110.872 501.364C109.924 501.279 109.001 501.111 108.121 500.861L102.871 499.369L109.116 494.23C116.369 488.887 124.74 484.698 133.701 481.926L139.426 480.155C143.175 478.996 147.053 478.282 150.93 478.038C156.604 477.681 162.16 478.338 167.205 479.963L170.956 481.17L166.465 487.063C165.958 487.729 165.328 488.335 164.601 488.858L166.619 490.766ZM101.389 500.589L101.391 500.587L101.389 500.589Z" stroke="black" stroke-width="6"/>
<path d="M151.032 457.631L147.978 452.959C145.999 449.932 144.276 446.671 142.84 443.236L141.471 439.963C136.914 429.066 134.206 417.292 133.531 405.441L133.392 403.008C132.989 395.932 133.247 388.9 134.161 382.053L135.16 374.573C135.362 373.058 135.701 371.591 136.169 370.199L139.488 360.344L148.404 372.252C156.178 383.851 162.111 397.091 165.839 411.161L168.145 419.863C169.675 425.637 170.517 431.584 170.641 437.504C170.826 446.313 169.419 454.874 166.524 462.555L163.937 469.419L153.922 460.936C152.838 460.017 151.862 458.902 151.032 457.631Z" stroke="black" stroke-width="6"/>
<path d="M233.538 507.92L229.849 504.167C227.488 501.766 225.269 499.157 223.214 496.367L220.606 492.826C215.568 485.986 211.558 478.191 208.805 469.883L207.924 467.224L205.437 468.059L207.924 467.224C206.593 463.206 205.699 459.062 205.27 454.907L204.682 449.223C204.597 448.406 204.614 447.596 204.732 446.82L205.458 442.033L214.819 450.706L216.892 452.777C224.231 460.106 230.712 468.661 236.091 478.116L241.124 486.964C242.795 489.902 244.128 493.067 245.078 496.354C246.947 502.819 247.276 509.543 246.024 515.696L245.853 516.532L235.717 509.735C234.949 509.22 234.218 508.612 233.538 507.92ZM204.452 441.1L204.453 441.101L204.452 441.1Z" stroke="black" stroke-width="6"/>
<path d="M264 18.6277L277.224 14.4202L289.847 10.8138L312.087 6.00531L323.65 4.19868C328.757 3.40076 333.919 2.99999 339.087 2.99999H348.754H374.601L399.246 6.00531L425.779 12.3009C431.721 13.7108 437.521 15.662 443.107 18.1301L460.557 25.8404L484 40.266L504.437 55.2925L521.172 70.2653C525.236 73.9015 528.996 77.864 532.414 82.1133L544.981 97.7364C548.003 101.492 550.748 105.462 553.197 109.614L563.344 126.819L575.967 152.064L584.984 178.511L590.995 201.952L594 229" stroke="black" stroke-width="5" stroke-linecap="round"/>
<path d="M600.193 240.717L601.332 244.802C602.044 247.355 602.507 250.019 602.711 252.734L602.976 256.275C603.651 265.273 602.788 274.412 600.446 283.072L599.454 286.742C597.968 292.233 596.031 297.527 593.675 302.533L590.663 308.931C590.102 310.121 589.454 311.243 588.727 312.282L583.87 319.217L580.418 309.549C577.417 299.285 576.243 288.241 576.976 277.188L577.476 269.666C577.828 264.363 578.787 259.128 580.324 254.128C582.425 247.288 585.57 241.006 589.574 235.65L593.678 230.161L598.746 237.564C599.379 238.488 599.869 239.556 600.193 240.717Z" stroke="black" stroke-width="6"/>
<path d="M601.847 173.373L602.224 170.629L601.847 173.373L606.451 174.917C609.393 175.903 612.283 177.191 615.064 178.755L618.093 180.459C627.067 185.508 635.223 192.135 642.006 199.889L643.925 202.083C648.12 206.88 651.833 211.996 654.995 217.335L658.606 223.434C659.318 224.636 659.91 225.878 660.373 227.14L663.554 235.812L651.563 232.665C639.961 228.929 628.755 223.026 618.675 215.34L612.198 210.401C607.783 207.034 603.776 203.16 600.312 198.906C595.342 192.804 591.584 186.04 589.289 179.068L587.125 172.493L598.028 172.693C599.282 172.716 600.574 172.946 601.847 173.373Z" stroke="black" stroke-width="6"/>
<path d="M552.988 90.4838L556.32 90.0693C558.386 89.8123 560.508 89.7457 562.648 89.8709L564.756 89.9943C571.656 90.3981 578.542 91.9993 584.949 94.6896L586.272 95.2452C590.085 96.8464 593.706 98.7841 597.061 101.019L600.826 103.527C601.507 103.981 602.133 104.489 602.692 105.042L605.787 108.108L598.893 109.415C590.759 110.517 582.237 110.23 573.843 108.569L568.549 107.522C565.178 106.855 561.891 105.788 558.8 104.357C554.184 102.22 550.101 99.3174 546.856 95.8648L544.812 93.691L550.827 91.0656C551.491 90.7757 552.221 90.5793 552.988 90.4838Z" stroke="black" stroke-width="6"/>
<path d="M500.958 38.8386L502.976 40.746L505.941 38.6137C507.792 37.2825 509.799 36.1084 511.923 35.1135L514.14 34.0751C521.017 30.8549 528.499 28.8009 536.078 28.0526L537.848 27.8779C542.505 27.4181 547.148 27.39 551.688 27.794L556.705 28.2404C557.653 28.3248 558.576 28.4936 559.456 28.7437L564.706 30.2353L558.461 35.3746C551.208 40.7173 542.837 44.9064 533.876 47.6783L528.151 49.449C524.402 50.6087 520.524 51.3224 516.647 51.5662C510.973 51.9231 505.417 51.2661 500.372 49.6418L496.621 48.4341L501.112 42.5414C501.619 41.8753 502.249 41.2688 502.976 40.746L500.958 38.8386ZM566.188 29.0156L566.186 29.0168L566.188 29.0156Z" stroke="black" stroke-width="6"/>
<path d="M516.545 71.973L519.599 76.6451C521.578 79.6728 523.301 82.9336 524.737 86.368L526.106 89.6417C530.663 100.538 533.371 112.312 534.046 124.164L534.185 126.596C534.588 133.672 534.33 140.705 533.416 147.551L532.417 155.031C532.215 156.547 531.876 158.013 531.408 159.405L528.089 169.26L519.173 157.353C511.399 145.753 505.466 132.513 501.738 118.444L499.432 109.742C497.902 103.967 497.06 98.0201 496.936 92.1003C496.751 83.2914 498.158 74.7307 501.053 67.0491L503.64 60.1854L513.655 68.6684C514.739 69.587 515.715 70.7026 516.545 71.973Z" stroke="black" stroke-width="6"/>
<path d="M434.039 21.6845L437.728 25.4369C440.089 27.8386 442.308 30.4475 444.363 33.2369L446.971 36.7784C452.009 43.6181 456.019 51.4136 458.772 59.721L459.653 62.3802L462.14 61.5452L459.653 62.3802C460.984 66.3982 461.878 70.5424 462.307 74.6973L462.895 80.3813C462.98 81.1981 462.963 82.0083 462.845 82.7846L462.119 87.5717L452.758 78.8981L450.685 76.8277C443.346 69.498 436.864 60.9432 431.486 51.488L426.453 42.6404C424.782 39.702 423.449 36.5372 422.499 33.2501C420.63 26.7858 420.301 20.0616 421.553 13.9085L421.723 13.072L431.86 19.8688C432.628 20.3839 433.359 20.9928 434.039 21.6845ZM463.125 88.5039L463.124 88.503L463.125 88.5039Z" stroke="black" stroke-width="6"/>
<path d="M255.48 197.44L237 192.6C237 188.2 238.1 186 240.3 186C241.62 186 249.173 186.293 262.96 186.88L297.72 186C311.653 186 322.727 190.253 330.94 198.76C339.153 207.267 343.26 217.753 343.26 230.22C343.26 242.54 338.493 253.173 328.96 262.12C319.427 271.067 305.787 276.347 288.04 277.96L273.3 279.28L271.76 328.56L296.18 333.4C296.18 337.8 295.08 340 292.88 340C286.573 340 276.6 339.707 262.96 339.12L240.3 340C238.1 340 237 337.8 237 333.4L255.48 328.56V197.44ZM293.76 195.24L271.76 197.44L273.96 263L273.74 267.18L289.8 268.06C302.12 268.06 311.433 264.32 317.74 256.84C324.193 249.36 327.42 240.707 327.42 230.88C327.42 220.907 324.56 212.473 318.84 205.58C313.12 198.687 304.76 195.24 293.76 195.24Z" fill="black"/>
<path d="M379.665 197.44L360.745 192.6C360.745 188.2 361.845 186 364.045 186C366.685 186 374.898 186.293 388.685 186.88L411.345 186C413.545 186 414.645 188.2 414.645 192.6L395.725 197.44L396.825 263L395.725 327.9H447.425L453.145 307.22C453.732 305.167 456.812 304.14 462.385 304.14L460.625 337.36C460.478 339.12 458.352 340 454.245 340L388.685 338.24L364.045 340C361.845 340 360.745 337.8 360.745 333.4L379.665 328.56L378.565 263L379.665 197.44Z" fill="#326570" fill-opacity="0.71"/>
</svg>
